<mxfile host="Electron" modified="2023-05-10T15:19:06.474Z" agent="Mozilla/5.0 (Windows NT 10.0; Win64; x64) AppleWebKit/537.36 (KHTML, like Gecko) draw.io/21.2.8 Chrome/112.0.5615.165 Electron/24.2.0 Safari/537.36" etag="Ud5dbW33Q2U2K6UX2agV" version="21.2.8" type="device">
  <diagram name="Page-1" id="7joXdjl0S2utYgXjmwkn">
    <mxGraphModel dx="1774" dy="548" grid="1" gridSize="10" guides="1" tooltips="1" connect="1" arrows="1" fold="1" page="1" pageScale="1" pageWidth="850" pageHeight="1100" math="0" shadow="0">
      <root>
        <mxCell id="0" />
        <mxCell id="1" parent="0" />
        <mxCell id="IRGWXzBe-tXQwAdKc8-B-1" value="Admin" style="shape=umlActor;verticalLabelPosition=bottom;verticalAlign=top;html=1;outlineConnect=0;" vertex="1" parent="1">
          <mxGeometry x="-20" y="100" width="30" height="60" as="geometry" />
        </mxCell>
        <mxCell id="IRGWXzBe-tXQwAdKc8-B-2" value="End_Users" style="shape=umlActor;verticalLabelPosition=bottom;verticalAlign=top;html=1;outlineConnect=0;" vertex="1" parent="1">
          <mxGeometry x="-20" y="390" width="30" height="60" as="geometry" />
        </mxCell>
        <mxCell id="IRGWXzBe-tXQwAdKc8-B-5" value="" style="rounded=0;whiteSpace=wrap;html=1;" vertex="1" parent="1">
          <mxGeometry x="130" width="710" height="620" as="geometry" />
        </mxCell>
        <mxCell id="IRGWXzBe-tXQwAdKc8-B-12" value="login" style="ellipse;whiteSpace=wrap;html=1;" vertex="1" parent="1">
          <mxGeometry x="230" y="50" width="80" height="50" as="geometry" />
        </mxCell>
        <mxCell id="IRGWXzBe-tXQwAdKc8-B-14" value="view user" style="ellipse;whiteSpace=wrap;html=1;" vertex="1" parent="1">
          <mxGeometry x="230" y="170" width="80" height="50" as="geometry" />
        </mxCell>
        <mxCell id="IRGWXzBe-tXQwAdKc8-B-68" style="edgeStyle=orthogonalEdgeStyle;rounded=0;orthogonalLoop=1;jettySize=auto;html=1;exitX=1;exitY=0.5;exitDx=0;exitDy=0;entryX=0;entryY=0.5;entryDx=0;entryDy=0;" edge="1" parent="1" source="IRGWXzBe-tXQwAdKc8-B-16" target="IRGWXzBe-tXQwAdKc8-B-41">
          <mxGeometry relative="1" as="geometry" />
        </mxCell>
        <mxCell id="IRGWXzBe-tXQwAdKc8-B-16" value="view income" style="ellipse;whiteSpace=wrap;html=1;" vertex="1" parent="1">
          <mxGeometry x="230" y="460" width="80" height="50" as="geometry" />
        </mxCell>
        <mxCell id="IRGWXzBe-tXQwAdKc8-B-17" value="transaction" style="ellipse;whiteSpace=wrap;html=1;" vertex="1" parent="1">
          <mxGeometry x="230" y="340" width="80" height="50" as="geometry" />
        </mxCell>
        <mxCell id="IRGWXzBe-tXQwAdKc8-B-51" value="" style="edgeStyle=orthogonalEdgeStyle;rounded=0;orthogonalLoop=1;jettySize=auto;html=1;" edge="1" parent="1" source="IRGWXzBe-tXQwAdKc8-B-18" target="IRGWXzBe-tXQwAdKc8-B-43">
          <mxGeometry relative="1" as="geometry" />
        </mxCell>
        <mxCell id="IRGWXzBe-tXQwAdKc8-B-18" value="investments" style="ellipse;whiteSpace=wrap;html=1;" vertex="1" parent="1">
          <mxGeometry x="230" y="400" width="80" height="50" as="geometry" />
        </mxCell>
        <mxCell id="IRGWXzBe-tXQwAdKc8-B-19" value="register" style="ellipse;whiteSpace=wrap;html=1;" vertex="1" parent="1">
          <mxGeometry x="230" y="270" width="80" height="50" as="geometry" />
        </mxCell>
        <mxCell id="IRGWXzBe-tXQwAdKc8-B-20" value="logout" style="ellipse;whiteSpace=wrap;html=1;" vertex="1" parent="1">
          <mxGeometry x="230" y="110" width="80" height="50" as="geometry" />
        </mxCell>
        <mxCell id="IRGWXzBe-tXQwAdKc8-B-30" value="" style="endArrow=classic;html=1;rounded=0;exitX=1;exitY=0.3333333333333333;exitDx=0;exitDy=0;exitPerimeter=0;" edge="1" parent="1" source="IRGWXzBe-tXQwAdKc8-B-1" target="IRGWXzBe-tXQwAdKc8-B-12">
          <mxGeometry width="50" height="50" relative="1" as="geometry">
            <mxPoint x="80" y="130" as="sourcePoint" />
            <mxPoint x="130" y="80" as="targetPoint" />
          </mxGeometry>
        </mxCell>
        <mxCell id="IRGWXzBe-tXQwAdKc8-B-31" value="" style="endArrow=classic;html=1;rounded=0;exitX=1;exitY=0.3333333333333333;exitDx=0;exitDy=0;exitPerimeter=0;" edge="1" parent="1" source="IRGWXzBe-tXQwAdKc8-B-1" target="IRGWXzBe-tXQwAdKc8-B-14">
          <mxGeometry width="50" height="50" relative="1" as="geometry">
            <mxPoint x="80" y="130" as="sourcePoint" />
            <mxPoint x="242" y="150" as="targetPoint" />
            <Array as="points" />
          </mxGeometry>
        </mxCell>
        <mxCell id="IRGWXzBe-tXQwAdKc8-B-32" value="" style="endArrow=classic;html=1;rounded=0;entryX=0;entryY=1;entryDx=0;entryDy=0;exitX=1;exitY=0.3333333333333333;exitDx=0;exitDy=0;exitPerimeter=0;" edge="1" parent="1" source="IRGWXzBe-tXQwAdKc8-B-2" target="IRGWXzBe-tXQwAdKc8-B-12">
          <mxGeometry width="50" height="50" relative="1" as="geometry">
            <mxPoint x="78" y="367" as="sourcePoint" />
            <mxPoint x="240" y="330" as="targetPoint" />
          </mxGeometry>
        </mxCell>
        <mxCell id="IRGWXzBe-tXQwAdKc8-B-33" value="" style="endArrow=classic;html=1;rounded=0;exitX=1;exitY=0.3333333333333333;exitDx=0;exitDy=0;exitPerimeter=0;entryX=0;entryY=0.5;entryDx=0;entryDy=0;" edge="1" parent="1" source="IRGWXzBe-tXQwAdKc8-B-2" target="IRGWXzBe-tXQwAdKc8-B-19">
          <mxGeometry width="50" height="50" relative="1" as="geometry">
            <mxPoint x="80" y="337" as="sourcePoint" />
            <mxPoint x="242" y="300" as="targetPoint" />
          </mxGeometry>
        </mxCell>
        <mxCell id="IRGWXzBe-tXQwAdKc8-B-34" value="" style="endArrow=classic;html=1;rounded=0;exitX=1;exitY=0.3333333333333333;exitDx=0;exitDy=0;exitPerimeter=0;" edge="1" parent="1" source="IRGWXzBe-tXQwAdKc8-B-1" target="IRGWXzBe-tXQwAdKc8-B-20">
          <mxGeometry width="50" height="50" relative="1" as="geometry">
            <mxPoint x="90" y="130" as="sourcePoint" />
            <mxPoint x="182" y="270" as="targetPoint" />
          </mxGeometry>
        </mxCell>
        <mxCell id="IRGWXzBe-tXQwAdKc8-B-35" value="" style="endArrow=classic;html=1;rounded=0;entryX=0;entryY=0.5;entryDx=0;entryDy=0;exitX=1;exitY=0.3333333333333333;exitDx=0;exitDy=0;exitPerimeter=0;" edge="1" parent="1" source="IRGWXzBe-tXQwAdKc8-B-2" target="IRGWXzBe-tXQwAdKc8-B-17">
          <mxGeometry width="50" height="50" relative="1" as="geometry">
            <mxPoint x="20" y="477" as="sourcePoint" />
            <mxPoint x="262" y="440" as="targetPoint" />
            <Array as="points" />
          </mxGeometry>
        </mxCell>
        <mxCell id="IRGWXzBe-tXQwAdKc8-B-36" value="" style="endArrow=classic;html=1;rounded=0;exitX=1;exitY=0.3333333333333333;exitDx=0;exitDy=0;exitPerimeter=0;" edge="1" parent="1" source="IRGWXzBe-tXQwAdKc8-B-2" target="IRGWXzBe-tXQwAdKc8-B-14">
          <mxGeometry width="50" height="50" relative="1" as="geometry">
            <mxPoint x="80" y="367" as="sourcePoint" />
            <mxPoint x="242" y="330" as="targetPoint" />
            <Array as="points" />
          </mxGeometry>
        </mxCell>
        <mxCell id="IRGWXzBe-tXQwAdKc8-B-38" value="" style="endArrow=classic;html=1;rounded=0;exitX=1;exitY=0.3333333333333333;exitDx=0;exitDy=0;exitPerimeter=0;entryX=0;entryY=0.5;entryDx=0;entryDy=0;" edge="1" parent="1" source="IRGWXzBe-tXQwAdKc8-B-2" target="IRGWXzBe-tXQwAdKc8-B-18">
          <mxGeometry width="50" height="50" relative="1" as="geometry">
            <mxPoint x="400" y="280" as="sourcePoint" />
            <mxPoint x="450" y="230" as="targetPoint" />
          </mxGeometry>
        </mxCell>
        <mxCell id="IRGWXzBe-tXQwAdKc8-B-39" value="" style="endArrow=classic;html=1;rounded=0;exitX=1;exitY=0.3333333333333333;exitDx=0;exitDy=0;exitPerimeter=0;entryX=0;entryY=0.5;entryDx=0;entryDy=0;" edge="1" parent="1" source="IRGWXzBe-tXQwAdKc8-B-2" target="IRGWXzBe-tXQwAdKc8-B-16">
          <mxGeometry width="50" height="50" relative="1" as="geometry">
            <mxPoint x="390" y="300" as="sourcePoint" />
            <mxPoint x="440" y="250" as="targetPoint" />
          </mxGeometry>
        </mxCell>
        <mxCell id="IRGWXzBe-tXQwAdKc8-B-41" value="link" style="ellipse;whiteSpace=wrap;html=1;" vertex="1" parent="1">
          <mxGeometry x="360" y="460" width="80" height="50" as="geometry" />
        </mxCell>
        <mxCell id="IRGWXzBe-tXQwAdKc8-B-43" value="modify" style="ellipse;whiteSpace=wrap;html=1;" vertex="1" parent="1">
          <mxGeometry x="360" y="400" width="80" height="50" as="geometry" />
        </mxCell>
        <mxCell id="IRGWXzBe-tXQwAdKc8-B-44" value="withdraw" style="ellipse;whiteSpace=wrap;html=1;" vertex="1" parent="1">
          <mxGeometry x="360" y="525" width="80" height="50" as="geometry" />
        </mxCell>
        <mxCell id="IRGWXzBe-tXQwAdKc8-B-62" value="" style="edgeStyle=orthogonalEdgeStyle;rounded=0;orthogonalLoop=1;jettySize=auto;html=1;" edge="1" parent="1" source="IRGWXzBe-tXQwAdKc8-B-45" target="IRGWXzBe-tXQwAdKc8-B-44">
          <mxGeometry relative="1" as="geometry" />
        </mxCell>
        <mxCell id="IRGWXzBe-tXQwAdKc8-B-45" value="add cash" style="ellipse;whiteSpace=wrap;html=1;" vertex="1" parent="1">
          <mxGeometry x="230" y="525" width="80" height="50" as="geometry" />
        </mxCell>
        <mxCell id="IRGWXzBe-tXQwAdKc8-B-55" value="" style="endArrow=classic;html=1;rounded=0;exitX=1;exitY=0.3333333333333333;exitDx=0;exitDy=0;exitPerimeter=0;entryX=0;entryY=0.5;entryDx=0;entryDy=0;" edge="1" parent="1" source="IRGWXzBe-tXQwAdKc8-B-1" target="IRGWXzBe-tXQwAdKc8-B-16">
          <mxGeometry width="50" height="50" relative="1" as="geometry">
            <mxPoint x="390" y="300" as="sourcePoint" />
            <mxPoint x="440" y="250" as="targetPoint" />
          </mxGeometry>
        </mxCell>
        <mxCell id="IRGWXzBe-tXQwAdKc8-B-56" value="" style="endArrow=classic;html=1;rounded=0;exitX=1;exitY=0.3333333333333333;exitDx=0;exitDy=0;exitPerimeter=0;entryX=0;entryY=0.5;entryDx=0;entryDy=0;" edge="1" parent="1" source="IRGWXzBe-tXQwAdKc8-B-1" target="IRGWXzBe-tXQwAdKc8-B-18">
          <mxGeometry width="50" height="50" relative="1" as="geometry">
            <mxPoint x="390" y="400" as="sourcePoint" />
            <mxPoint x="440" y="350" as="targetPoint" />
          </mxGeometry>
        </mxCell>
        <mxCell id="IRGWXzBe-tXQwAdKc8-B-59" value="" style="endArrow=classic;html=1;rounded=0;exitX=1;exitY=0.3333333333333333;exitDx=0;exitDy=0;exitPerimeter=0;entryX=0;entryY=0.5;entryDx=0;entryDy=0;" edge="1" parent="1" source="IRGWXzBe-tXQwAdKc8-B-1" target="IRGWXzBe-tXQwAdKc8-B-17">
          <mxGeometry width="50" height="50" relative="1" as="geometry">
            <mxPoint x="390" y="300" as="sourcePoint" />
            <mxPoint x="440" y="250" as="targetPoint" />
          </mxGeometry>
        </mxCell>
        <mxCell id="IRGWXzBe-tXQwAdKc8-B-60" value="" style="endArrow=classic;html=1;rounded=0;exitX=1;exitY=0.3333333333333333;exitDx=0;exitDy=0;exitPerimeter=0;entryX=0;entryY=0.5;entryDx=0;entryDy=0;" edge="1" parent="1" source="IRGWXzBe-tXQwAdKc8-B-2" target="IRGWXzBe-tXQwAdKc8-B-45">
          <mxGeometry width="50" height="50" relative="1" as="geometry">
            <mxPoint x="390" y="400" as="sourcePoint" />
            <mxPoint x="440" y="350" as="targetPoint" />
          </mxGeometry>
        </mxCell>
      </root>
    </mxGraphModel>
  </diagram>
</mxfile>
